<svg xmlns="http://www.w3.org/2000/svg" xmlns:xlink="http://www.w3.org/1999/xlink" width="20" height="20"><defs><path d="M12.66.36l1.23.43 1.16.58 1.06.71.96.85.85.96.71 1.06.58 1.16.43 1.23.27 1.3L20 10l-.09 1.36-.27 1.3-.43 1.23-.58 1.16-.71 1.06-.85.96-.96.85-1.06.71-1.16.58-1.23.43-1.3.27L10 20l-1.36-.09-1.3-.27-1.23-.43-1.16-.58-1.06-.71-.96-.85-.85-.96-.71-1.06-.58-1.16-.43-1.23-.27-1.3L0 10l.09-1.36.27-1.3.43-1.23.58-1.16.71-1.06.85-.96.96-.85 1.06-.71L6.11.79 7.34.36l1.3-.27L10 0l1.36.09 1.3.27zM6.95 4.57l-.12.06-.11.06-.11.08-.09.09-.08.11-.07.11-.05.11-.04.13-.03.13-.01.14.01.13.03.13.04.13.05.12.07.11.08.1.09.09.11.08.11.07.12.05.13.04.13.02.14.01h4.57l.11.02.1.02.1.04.1.05.09.06.08.06.07.08.06.08.05.09.05.09.03.1.02.11v.22l-.02.1-.03.1-.05.1-.05.09-.06.08-.07.07-.08.07-.09.06-.1.05-.1.03-.1.03-.11.01H3.61l-.14.01-.13.03-.13.04-.12.05-.11.07-.11.08-.09.09-.08.1-.07.11-.06.12-.04.12-.02.13-.01.14.01.14.02.13.04.12.06.12.07.11.08.1.09.09.11.08.11.07.12.05.13.04.13.03.14.01h8.49l.11.02.11.04.1.04.09.06.09.06.07.08.07.08.06.09.05.1.03.11.02.11.01.11-.01.11-.02.11-.03.11-.05.1-.06.09-.07.08-.07.08-.09.06-.09.06-.1.04-.11.04-.11.02-.12.01h-.05v.01h-.01l-3.46-.01-1.23.01h-.02l-.01-.01h-.16l-.16.01-.16.02-.14.05-.15.06-.13.08-.12.1-.11.1-.09.12-.08.13-.06.13-.05.15-.03.15-.01.16.01.16.03.16.05.14.06.14.08.13.09.11.11.11.12.09.13.08.15.06.14.05.16.03.16.01h.19l5.18-.01.4-.06.37-.09.36-.13.34-.16.31-.2.28-.22.26-.26.22-.27.19-.3.16-.32.11-.34.07-.35.02-.37-.01-.22-.02-.21-.04-.21-.06-.2-.07-.2-.09-.19-.09-.19-.11-.18-.13-.17-.13-.16-.15-.16-.16-.14-.17-.14.11-.13.1-.13.09-.14.08-.14.07-.15.07-.15.05-.16.05-.15.04-.16.03-.17.03-.16.01-.17.01-.16-.03-.38-.07-.37-.11-.35-.15-.33-.2-.31-.22-.29-.26-.25-.28-.23-.32-.19-.33-.16-.36-.11-.37-.08-.39-.03-4.44.01h-.01l-.01-.01h-.11l-.14.01-.13.02-.13.04z" id="a"/><clipPath id="b"><use xlink:href="#a"/></clipPath></defs><use xlink:href="#a"/><g clip-path="url(#b)"><use xlink:href="#a" fill-opacity="0" stroke="#e62727" stroke-width="16" stroke-opacity="0"/></g></svg>