<svg xmlns="http://www.w3.org/2000/svg" xmlns:xlink="http://www.w3.org/1999/xlink" width="26" height="26"><defs><path d="M14.38.33l.93.4.86.53.75.65.65.75.53.86.4.93.24 1 .09 1.05-.13 1.09-.34 1.42-.51 1.65-.64 1.8-.71 1.85-.73 1.83-.72 1.7-.64 1.49-.53 1.2-.37.81-.07.13-.08.13-.1.11-.11.1-.12.08-.12.08-.14.05-.14.05-.15.02-.15.01-.15-.01-.15-.02-.14-.05-.14-.05-.12-.08-.12-.08-.11-.1-.1-.11-.08-.13-.07-.13-.37-.81-.53-1.2-.64-1.49-.72-1.7-.74-1.83-.71-1.85-.63-1.8-.51-1.65-.35-1.42-.12-1.09.08-1.05.25-1 .4-.93.52-.86.66-.75.75-.65.85-.53.94-.4 1-.24L12.33 0l1.05.09 1 .24zM10.62 3l-.73.46-.6.6-.46.73-.3.82-.1.89.12.88.33 1.25.51 1.54.64 1.75.73 1.88.78 1.92.79 1.87.79-1.88.78-1.91.73-1.88.64-1.75.51-1.54.33-1.25.12-.88-.1-.89-.3-.82-.46-.73-.6-.6-.73-.46-.82-.3-.89-.1-.89.1-.82.3z" id="a"/><path d="M12.33 4.55c-1.08 0-1.95.87-1.95 1.95s.87 1.95 1.95 1.95 1.95-.87 1.95-1.95-.87-1.95-1.95-1.95z" id="b"/><path d="M2.6 26c-.87 0-1.69-.44-2.17-1.17s-.56-1.65-.22-2.46c.28-.65 2.51-5.84 2.79-6.49.41-.96 1.35-1.58 2.39-1.58h1.07v2.6H5.39L2.6 23.4h19.46l-2.79-6.5h-1.11v-2.6h1.11c1.04 0 1.98.62 2.39 1.58.28.65 2.51 5.85 2.78 6.5.35.8.27 1.72-.21 2.45-.48.73-1.3 1.17-2.17 1.17H2.6z" id="c"/></defs><use xlink:href="#a"/><use xlink:href="#a" fill-opacity="0" stroke="#000" stroke-opacity="0"/><use xlink:href="#b"/><use xlink:href="#b" fill-opacity="0" stroke="#000" stroke-opacity="0"/><g><use xlink:href="#c"/><use xlink:href="#c" fill-opacity="0" stroke="#000" stroke-opacity="0"/></g></svg>